<?xml version="1.0" encoding="UTF-8"?>
<svg id="Layer_1" xmlns="http://www.w3.org/2000/svg" xmlns:xlink="http://www.w3.org/1999/xlink" version="1.1" viewBox="0 0 210.28 191.89">
  <!-- Generator: Adobe Illustrator 29.2.0, SVG Export Plug-In . SVG Version: 2.1.0 Build 108)  -->
  <defs>
    <style>
      .st0, .st1, .st2, .st3, .st4 {
        fill: none;
      }

      .st1, .st2, .st3, .st4 {
        stroke: #000;
      }

      .st1, .st3, .st4 {
        stroke-linecap: square;
      }

      .st1, .st4 {
        stroke-miterlimit: 10;
      }

      .st2, .st3 {
        stroke-linejoin: round;
      }

      .st2, .st3, .st4 {
        stroke-width: 1px;
      }

      .st5 {
        fill: #fff;
      }

      .st6 {
        font-family: Menlo-Regular, Menlo;
        font-size: 11.5px;
      }

      .st7 {
        fill: #7f7f7f;
      }

      .st8 {
        clip-path: url(#clippath);
      }
    </style>
    <clipPath id="clippath">
      <rect class="st0" x="-107" y="-226.11" width="789.24" height="636.64"/>
    </clipPath>
  </defs>
  <rect class="st5" x="28.58" y="50.17" width="120.12" height="120.12"/>
  <path class="st4" d="M28.58,50.17h120.12v120.12H28.58V50.17ZM58.61,65.18h0c0-8.29-6.73-15.02-15.01-15.02s-15.02,6.73-15.02,15.02,6.73,15.01,15.02,15.01,15.01-6.73,15.01-15.01"/>
  <path class="st5" d="M58.61,65.18h0c0-8.29-6.73-15.02-15.01-15.02s-15.02,6.73-15.02,15.02,6.73,15.01,15.02,15.01,15.01-6.73,15.01-15.01"/>
  <path class="st1" d="M58.61,65.18h0c0-8.29-6.73-15.02-15.01-15.02s-15.02,6.73-15.02,15.02,6.73,15.01,15.02,15.01,15.01-6.73,15.01-15.01"/>
  <path class="st4" d="M58.61,95.21h0c0-8.29-6.73-15.02-15.01-15.02s-15.02,6.73-15.02,15.02,6.73,15.01,15.02,15.01,15.01-6.73,15.01-15.01"/>
  <path class="st5" d="M58.61,95.21h0c0-8.29-6.73-15.02-15.01-15.02s-15.02,6.73-15.02,15.02,6.73,15.01,15.02,15.01,15.01-6.73,15.01-15.01"/>
  <path class="st1" d="M58.61,95.21h0c0-8.29-6.73-15.02-15.01-15.02s-15.02,6.73-15.02,15.02,6.73,15.01,15.02,15.01,15.01-6.73,15.01-15.01"/>
  <path class="st4" d="M58.61,125.24h0c0-8.29-6.73-15.02-15.01-15.02s-15.02,6.73-15.02,15.02,6.73,15.01,15.02,15.01,15.01-6.73,15.01-15.01"/>
  <path d="M58.61,125.24h0c0-8.29-6.73-15.02-15.01-15.02s-15.02,6.73-15.02,15.02,6.73,15.01,15.02,15.01,15.01-6.73,15.01-15.01"/>
  <path class="st1" d="M58.61,125.24h0c0-8.29-6.73-15.02-15.01-15.02s-15.02,6.73-15.02,15.02,6.73,15.01,15.02,15.01,15.01-6.73,15.01-15.01"/>
  <path class="st4" d="M58.61,155.27h0c0-8.29-6.73-15.02-15.01-15.02s-15.02,6.73-15.02,15.02,6.73,15.02,15.02,15.02,15.01-6.73,15.01-15.02"/>
  <path class="st5" d="M58.61,155.27h0c0-8.29-6.73-15.02-15.01-15.02s-15.02,6.73-15.02,15.02,6.73,15.02,15.02,15.02,15.01-6.73,15.01-15.02"/>
  <path class="st1" d="M58.61,155.27h0c0-8.29-6.73-15.02-15.01-15.02s-15.02,6.73-15.02,15.02,6.73,15.02,15.02,15.02,15.01-6.73,15.01-15.02"/>
  <path class="st4" d="M88.64,65.18h0c0-8.29-6.73-15.02-15.01-15.02s-15.02,6.73-15.02,15.02,6.73,15.01,15.02,15.01,15.01-6.73,15.01-15.01"/>
  <path class="st5" d="M88.64,65.18h0c0-8.29-6.73-15.02-15.01-15.02s-15.02,6.73-15.02,15.02,6.73,15.01,15.02,15.01,15.01-6.73,15.01-15.01"/>
  <path class="st1" d="M88.64,65.18h0c0-8.29-6.73-15.02-15.01-15.02s-15.02,6.73-15.02,15.02,6.73,15.01,15.02,15.01,15.01-6.73,15.01-15.01"/>
  <path class="st4" d="M88.64,95.21h0c0-8.29-6.73-15.02-15.01-15.02s-15.02,6.73-15.02,15.02,6.73,15.01,15.02,15.01,15.01-6.73,15.01-15.01"/>
  <path class="st5" d="M88.64,95.21h0c0-8.29-6.73-15.02-15.01-15.02s-15.02,6.73-15.02,15.02,6.73,15.01,15.02,15.01,15.01-6.73,15.01-15.01"/>
  <path class="st1" d="M88.64,95.21h0c0-8.29-6.73-15.02-15.01-15.02s-15.02,6.73-15.02,15.02,6.73,15.01,15.02,15.01,15.01-6.73,15.01-15.01"/>
  <path class="st4" d="M88.64,125.24h0c0-8.29-6.73-15.02-15.01-15.02s-15.02,6.73-15.02,15.02,6.73,15.01,15.02,15.01,15.01-6.73,15.01-15.01"/>
  <path class="st5" d="M88.64,125.24h0c0-8.29-6.73-15.02-15.01-15.02s-15.02,6.73-15.02,15.02,6.73,15.01,15.02,15.01,15.01-6.73,15.01-15.01"/>
  <path class="st1" d="M88.64,125.24h0c0-8.29-6.73-15.02-15.01-15.02s-15.02,6.73-15.02,15.02,6.73,15.01,15.02,15.01,15.01-6.73,15.01-15.01"/>
  <path class="st4" d="M88.64,155.27h0c0-8.29-6.73-15.02-15.01-15.02s-15.02,6.73-15.02,15.02,6.73,15.02,15.02,15.02,15.01-6.73,15.01-15.02"/>
  <path class="st5" d="M88.64,155.27h0c0-8.29-6.73-15.02-15.01-15.02s-15.02,6.73-15.02,15.02,6.73,15.02,15.02,15.02,15.01-6.73,15.01-15.02"/>
  <path class="st1" d="M88.64,155.27h0c0-8.29-6.73-15.02-15.01-15.02s-15.02,6.73-15.02,15.02,6.73,15.02,15.02,15.02,15.01-6.73,15.01-15.02"/>
  <path class="st4" d="M118.67,65.18h0c0-8.29-6.73-15.02-15.01-15.02s-15.02,6.73-15.02,15.02,6.73,15.01,15.02,15.01,15.01-6.73,15.01-15.01"/>
  <path class="st5" d="M118.67,65.18h0c0-8.29-6.73-15.02-15.01-15.02s-15.02,6.73-15.02,15.02,6.73,15.01,15.02,15.01,15.01-6.73,15.01-15.01"/>
  <path class="st1" d="M118.67,65.18h0c0-8.29-6.73-15.02-15.01-15.02s-15.02,6.73-15.02,15.02,6.73,15.01,15.02,15.01,15.01-6.73,15.01-15.01"/>
  <path class="st4" d="M118.67,95.21h0c0-8.29-6.73-15.02-15.01-15.02s-15.02,6.73-15.02,15.02,6.73,15.01,15.02,15.01,15.01-6.73,15.01-15.01"/>
  <path class="st5" d="M118.67,95.21h0c0-8.29-6.73-15.02-15.01-15.02s-15.02,6.73-15.02,15.02,6.73,15.01,15.02,15.01,15.01-6.73,15.01-15.01"/>
  <path class="st1" d="M118.67,95.21h0c0-8.29-6.73-15.02-15.01-15.02s-15.02,6.73-15.02,15.02,6.73,15.01,15.02,15.01,15.01-6.73,15.01-15.01"/>
  <path class="st4" d="M118.67,125.24h0c0-8.29-6.73-15.02-15.01-15.02s-15.02,6.73-15.02,15.02,6.73,15.01,15.02,15.01,15.01-6.73,15.01-15.01"/>
  <path class="st5" d="M118.67,125.24h0c0-8.29-6.73-15.02-15.01-15.02s-15.02,6.73-15.02,15.02,6.73,15.01,15.02,15.01,15.01-6.73,15.01-15.01"/>
  <path class="st1" d="M118.67,125.24h0c0-8.29-6.73-15.02-15.01-15.02s-15.02,6.73-15.02,15.02,6.73,15.01,15.02,15.01,15.01-6.73,15.01-15.01"/>
  <path class="st4" d="M118.67,155.27h0c0-8.29-6.73-15.02-15.01-15.02s-15.02,6.73-15.02,15.02,6.73,15.02,15.02,15.02,15.01-6.73,15.01-15.02"/>
  <path class="st5" d="M118.67,155.27h0c0-8.29-6.73-15.02-15.01-15.02s-15.02,6.73-15.02,15.02,6.73,15.02,15.02,15.02,15.01-6.73,15.01-15.02"/>
  <path class="st1" d="M118.67,155.27h0c0-8.29-6.73-15.02-15.01-15.02s-15.02,6.73-15.02,15.02,6.73,15.02,15.02,15.02,15.01-6.73,15.01-15.02"/>
  <path class="st4" d="M148.7,65.18h0c0-8.29-6.73-15.02-15.01-15.02s-15.02,6.73-15.02,15.02,6.73,15.01,15.02,15.01,15.01-6.73,15.01-15.01"/>
  <path class="st5" d="M148.7,65.18h0c0-8.29-6.73-15.02-15.01-15.02s-15.02,6.73-15.02,15.02,6.73,15.01,15.02,15.01,15.01-6.73,15.01-15.01"/>
  <path class="st1" d="M148.7,65.18h0c0-8.29-6.73-15.02-15.01-15.02s-15.02,6.73-15.02,15.02,6.73,15.01,15.02,15.01,15.01-6.73,15.01-15.01"/>
  <path class="st4" d="M148.7,95.21h0c0-8.29-6.73-15.02-15.01-15.02s-15.02,6.73-15.02,15.02,6.73,15.01,15.02,15.01,15.01-6.73,15.01-15.01"/>
  <path class="st7" d="M148.7,95.21h0c0-8.29-6.73-15.02-15.01-15.02s-15.02,6.73-15.02,15.02,6.73,15.01,15.02,15.01,15.01-6.73,15.01-15.01"/>
  <path class="st1" d="M148.7,95.21h0c0-8.29-6.73-15.02-15.01-15.02s-15.02,6.73-15.02,15.02,6.73,15.01,15.02,15.01,15.01-6.73,15.01-15.01"/>
  <path class="st4" d="M148.7,125.24h0c0-8.29-6.73-15.02-15.01-15.02s-15.02,6.73-15.02,15.02,6.73,15.01,15.02,15.01,15.01-6.73,15.01-15.01"/>
  <path class="st5" d="M148.7,125.24h0c0-8.29-6.73-15.02-15.01-15.02s-15.02,6.73-15.02,15.02,6.73,15.01,15.02,15.01,15.01-6.73,15.01-15.01"/>
  <path class="st1" d="M148.7,125.24h0c0-8.29-6.73-15.02-15.01-15.02s-15.02,6.73-15.02,15.02,6.73,15.01,15.02,15.01,15.01-6.73,15.01-15.01"/>
  <path class="st4" d="M148.7,155.27h0c0-8.29-6.73-15.02-15.01-15.02s-15.02,6.73-15.02,15.02,6.73,15.02,15.02,15.02,15.01-6.73,15.01-15.02"/>
  <path class="st5" d="M148.7,155.27h0c0-8.29-6.73-15.02-15.01-15.02s-15.02,6.73-15.02,15.02,6.73,15.02,15.02,15.02,15.01-6.73,15.01-15.02"/>
  <g class="st8">
    <path class="st1" d="M148.7,155.27h0c0-8.29-6.73-15.02-15.01-15.02s-15.02,6.73-15.02,15.02,6.73,15.02,15.02,15.02,15.01-6.73,15.01-15.02"/>
  </g>
  <polyline class="st3" points="28.58 14.13 190.74 14.13 186.74 18.13 186.74 29.14 190.74 33.15 28.58 33.15 28.58 14.13"/>
  <rect x="28.58" y="31.15" width="7.01" height="2"/>
  <rect class="st4" x="28.58" y="31.15" width="7.01" height="2"/>
  <rect x="28.58" y="14.13" width="7.01" height="2"/>
  <rect class="st4" x="28.58" y="14.13" width="7.01" height="2"/>
  <text class="st6" transform="translate(30.59 28.18)"><tspan x="0" y="0">set 0 2 1, set 3 1 0.5</tspan></text>
  <line class="st2" x1="31.58" y1="33.15" x2="31.58" y2="50.17"/>
  <rect x="28.58" y="168.28" width="7.01" height="2"/>
  <rect class="st4" x="28.58" y="168.28" width="7.01" height="2"/>
  <rect x="141.69" y="168.28" width="7.01" height="2"/>
  <rect class="st4" x="141.69" y="168.28" width="7.01" height="2"/>
  <rect x="28.58" y="50.17" width="7.01" height="2"/>
  <rect class="st4" x="28.58" y="50.17" width="7.01" height="2"/>
</svg>